<svg width="518" height="321" viewBox="0 0 518 321" fill="none" xmlns="http://www.w3.org/2000/svg">
<g clip-path="url(#clip0_5_233)">
<path d="M158.5 321C246.037 321 317 249.142 317 160.5C317 71.8583 246.037 0 158.5 0C70.9629 0 0 71.8583 0 160.5C0 249.142 70.9629 321 158.5 321Z" fill="#F4E450"/>
<path d="M66.4214 112.48C72.2562 111.467 80.4586 110.715 92.0093 110.715C103.699 110.715 112.02 112.982 117.607 117.516C122.956 121.789 126.552 128.841 126.552 137.137C126.552 145.443 123.818 152.485 118.855 157.27C112.396 163.439 102.827 166.208 91.6427 166.208C89.1563 166.208 86.9174 166.077 85.1839 165.837V196.151H66.4214V112.48ZM85.1839 150.98C86.7986 151.362 88.7897 151.482 91.5239 151.482C101.589 151.482 107.81 146.326 107.81 137.649C107.81 129.845 102.46 125.19 93.0197 125.19C89.1662 125.19 86.5608 125.571 85.1938 125.942V150.98H85.1839Z" fill="white"/>
<path d="M170.259 196.151L169.139 189.992H168.773C164.8 194.897 158.589 197.535 151.377 197.535C139.074 197.535 131.743 188.487 131.743 178.667C131.743 162.687 145.919 155.013 167.416 155.133V154.251C167.416 150.98 165.672 146.326 156.36 146.326C150.139 146.326 143.561 148.463 139.589 150.98L136.102 138.652C140.332 136.265 148.653 133.245 159.709 133.245C179.967 133.245 186.426 145.323 186.426 159.788V181.184C186.426 187.093 186.663 192.75 187.297 196.151H170.259ZM168.02 167.081C158.074 166.95 150.377 169.348 150.377 176.771C150.377 181.676 153.606 184.073 157.836 184.073C162.562 184.073 166.405 180.934 167.643 177.032C167.891 176.018 168.02 174.885 168.02 173.761V167.081Z" fill="white"/>
<path d="M213.965 134.619L223.029 164.823C224.03 168.465 225.268 172.999 226.021 176.279H226.388C227.259 173.009 228.25 168.354 229.122 164.823L236.571 134.619H256.829L242.663 175.136C233.966 199.552 228.121 209.362 221.286 215.521C214.708 221.309 207.744 223.316 203.019 223.948L199.046 207.727C201.404 207.346 204.396 206.212 207.249 204.457C210.112 202.952 213.222 199.923 215.075 196.773C215.689 195.89 216.075 194.887 216.075 194.014C216.075 193.382 215.946 192.379 215.203 190.875L192.964 134.629H213.965V134.619Z" fill="white"/>
</g>
<path d="M92.4365 152.176H95.6365C103.317 152.176 108.735 151.237 111.893 149.36C115.903 147.056 117.909 142.832 117.909 136.688C117.909 126.619 113.173 121.584 103.701 121.584H92.4365V152.176ZM78.4845 108.528H102.549C111.935 108.528 119.103 110.875 124.053 115.568C129.343 120.347 131.989 127.387 131.989 136.688C131.989 145.563 129.087 152.645 123.285 157.936C117.738 162.8 110.527 165.232 101.653 165.232H92.4365V204.016H78.4845V108.528ZM183.435 204.144V197.36C179.253 202.821 173.237 205.552 165.387 205.552C156.853 205.552 150.539 203.163 146.443 198.384C143.541 194.885 142.091 190.619 142.091 185.584C142.091 168.176 154.891 159.472 180.491 159.472H182.411V157.168C182.411 148.805 178.528 144.624 170.763 144.624C163.765 144.624 156.853 146.459 150.027 150.128V137.584C156.512 134.256 163.68 132.592 171.531 132.592C179.723 132.592 185.696 134.512 189.451 138.352C193.461 142.533 195.467 149.019 195.467 157.808V187.632C195.467 195.483 195.723 200.987 196.235 204.144H183.435ZM182.411 171.376H179.723C173.067 171.376 167.947 171.973 164.363 173.168C158.645 175.045 155.787 178.757 155.787 184.304C155.787 190.448 159.328 193.52 166.411 193.52C177.077 193.52 182.411 187.035 182.411 174.064V171.376ZM267.265 134.256L241.921 205.04C239.787 211.013 237.569 215.152 235.265 217.456C232.449 220.613 228.694 222.235 224.001 222.32H222.721C219.478 222.32 216.15 221.893 212.737 221.04L214.145 208.24C217.131 209.349 219.563 209.904 221.441 209.904C221.611 209.904 221.953 209.861 222.465 209.776C223.062 209.776 223.83 209.733 224.769 209.648C226.731 209.477 228.523 206.619 230.145 201.072L231.169 197.744L208.001 134.256H222.081L237.569 180.976L253.697 134.256H267.265ZM309.654 160.496H274.966V147.44H309.654V160.496ZM369.21 204.144V197.104C364.602 202.736 358.543 205.552 351.034 205.552C342.671 205.552 336.314 203.035 331.962 198C328.122 193.307 326.202 186.992 326.202 179.056V134.256H339.898V176.496C339.898 187.845 344.036 193.52 352.314 193.52C357.86 193.52 362.084 191.429 364.986 187.248C367.29 183.835 368.442 179.184 368.442 173.296V134.256H382.01V186.48C382.01 192.795 382.266 198.683 382.778 204.144H369.21ZM416.627 222.32H403.187V134H416.627L416.243 141.808C416.584 141.381 417.011 140.869 417.523 140.272C418.035 139.589 418.632 138.907 419.315 138.224C423.069 134.469 428.147 132.592 434.547 132.592C443.933 132.592 451.144 135.749 456.179 142.064C460.616 147.867 462.835 156.059 462.835 166.64C462.835 177.392 460.488 185.925 455.795 192.24C450.845 198.981 443.635 202.352 434.163 202.352C426.568 202.352 420.723 199.579 416.627 194.032V222.32ZM433.011 145.008C427.72 145.008 423.624 147.227 420.723 151.664C417.992 155.675 416.627 160.923 416.627 167.408C416.627 173.723 417.949 178.971 420.595 183.152C423.581 187.675 427.635 189.936 432.755 189.936C443.848 189.936 449.395 182.299 449.395 167.024C449.395 152.347 443.933 145.008 433.011 145.008Z" fill="#000357"/>
<defs>
<clipPath id="clip0_5_233">
<rect width="317" height="321" fill="white"/>
</clipPath>
</defs>
</svg>
