<svg width="234" height="234" viewBox="0 0 234 234" fill="none" xmlns="http://www.w3.org/2000/svg">
<path d="M232.088 77.8521L181.069 26.8337C178.642 24.4059 174.673 24.2902 172.091 26.6024L151.861 45.0214L108.28 25.1766C95.2168 19.2422 79.4949 24.9066 73.2911 37.8543L50.5565 85.058H19.8836C8.9398 85.058 0 93.9978 0 104.941V191.295C0 202.239 8.9398 211.178 19.8836 211.178H139.916C150.86 211.178 159.799 202.239 159.799 191.295V160.352L232.126 86.9845C234.631 84.4411 234.631 80.3568 232.088 77.8521ZM146.774 191.295C146.774 195.11 143.691 198.192 139.876 198.192H19.8836C16.0687 198.192 12.9859 195.11 12.9859 191.295V104.941C12.9859 101.126 16.0687 98.0433 19.8836 98.0433H46.3561C46.0479 106.058 49.9783 113.881 57.2998 118.273C68.6674 125.132 83.541 120.2 88.936 109.565L95.1011 98.0433H139.839C143.654 98.0433 146.737 101.126 146.737 104.941L146.774 191.295ZM102.153 85.0192L105.197 79.3936C105.929 78.0065 107.123 77.6596 107.817 77.544C108.472 77.4671 109.743 77.4671 110.861 78.546L117.373 85.0198H102.153V85.0192ZM139.915 85.0192H135.715L119.993 69.3749C116.256 65.637 111.092 63.9417 105.852 64.7125C100.611 65.4832 96.18 68.566 93.6754 73.2672L77.491 103.401C74.4469 108.141 69.1675 109.99 64.0044 107.139C59.727 104.557 58.1087 99.1621 60.2664 94.654L85.005 43.4812C88.1647 36.8535 96.2569 33.9632 102.923 36.9692L149.318 58.1241L196.097 104.904L159.76 141.819V104.942C159.76 93.959 150.898 85.0192 139.915 85.0192ZM205.268 95.7317L162.496 52.998L176.253 40.4746L218.292 82.4764L205.268 95.7317Z" fill="#194F82"/>
<path d="M139.916 98.082H95.2166L89.0515 109.603C83.6952 120.238 68.7829 125.171 57.4153 118.312C50.0938 113.919 46.1252 106.097 46.4715 98.082H19.884C16.0692 98.082 12.9863 101.165 12.9863 104.98V191.334C12.9863 195.148 16.0692 198.231 19.884 198.231H139.916C143.731 198.231 146.814 195.148 146.814 191.334V104.941C146.775 101.165 143.692 98.082 139.916 98.082Z" fill="#6E9BF3"/>
<path d="M162.496 52.9212L205.269 95.7318L218.331 82.4759L176.253 40.3972L162.496 52.9212Z" fill="#F4E450"/>
<path d="M60.3432 94.6529C58.1854 99.1615 59.7269 104.556 64.0811 107.138C69.2061 109.989 74.5236 108.178 77.5677 103.4L93.7521 73.2661C96.2568 68.6036 100.688 65.482 105.929 64.7113C111.169 63.9406 116.294 65.6364 120.07 69.3737L135.792 85.0181H139.992C150.936 85.0181 159.875 93.9579 159.875 104.902V141.778L196.213 104.902L149.317 58.1218L102.923 36.968C96.2568 33.9239 88.242 36.8136 85.0048 43.48L60.3432 94.6529Z" fill="#F4E450"/>
<path d="M36.7992 176.922H30.2103C26.6267 176.922 23.6982 179.812 23.6982 183.434C23.6982 187.017 26.588 189.946 30.2103 189.946H36.7998C40.3833 189.946 43.3118 187.056 43.3118 183.434C43.3118 179.812 40.3827 176.922 36.7992 176.922Z" fill="#194F82"/>
<path d="M67.7412 176.922H61.1517C57.5681 176.922 54.6396 179.812 54.6396 183.434C54.6396 187.017 57.5294 189.946 61.1517 189.946H67.7412C71.3247 189.946 74.2532 187.056 74.2532 183.434C74.2538 179.812 71.3253 176.922 67.7412 176.922Z" fill="#194F82"/>
<path d="M98.6455 176.922H92.056C88.4724 176.922 85.5439 179.812 85.5439 183.434C85.5439 187.017 88.4337 189.946 92.056 189.946H98.6455C102.229 189.946 105.157 187.056 105.157 183.434C105.157 179.812 102.268 176.922 98.6455 176.922Z" fill="#194F82"/>
<path d="M129.627 176.922H123.037C119.454 176.922 116.525 179.812 116.525 183.434C116.525 187.017 119.415 189.946 123.037 189.946H129.627C133.21 189.946 136.139 187.056 136.139 183.434C136.139 179.812 133.21 176.922 129.627 176.922Z" fill="#194F82"/>
<path d="M48.7066 138.658H36.7227V150.642H48.7066V138.658Z" fill="white"/>
<path d="M55.1801 125.672H30.2103C26.6267 125.672 23.6982 128.562 23.6982 132.184V157.193C23.6982 160.776 26.588 163.705 30.2103 163.705H55.2188C58.8024 163.705 61.7308 160.815 61.7308 157.193V132.184C61.6533 128.562 58.7636 125.672 55.1801 125.672ZM48.6674 150.681H36.7223V138.697H48.7062V150.681H48.6674Z" fill="#194F82"/>
</svg>
