<svg width="200" height="200" viewBox="0 0 200 200" fill="none" xmlns="http://www.w3.org/2000/svg">
<path d="M36.5008 79.8079C25.2194 79.8079 16.0635 88.9638 16.0635 100.245C16.0635 111.527 25.2194 120.683 36.5008 120.683C47.7823 120.683 56.9382 111.527 56.9382 100.245C56.9382 88.9638 47.7823 79.8079 36.5008 79.8079ZM42.3868 108.298C41.4875 109.401 40.3431 110.096 38.9942 110.464C38.4219 110.627 38.1358 110.954 38.1767 111.568C38.2176 112.181 38.1767 112.794 38.1767 113.366C38.1767 113.897 37.8906 114.184 37.3592 114.224C36.7052 114.224 36.0512 114.224 35.3972 114.224C34.825 114.224 34.5797 113.897 34.5388 113.325C34.5388 112.876 34.5388 112.426 34.5388 112.017C34.5388 111.036 34.498 110.995 33.5579 110.873C32.3725 110.668 31.1871 110.423 30.0835 109.892C29.2251 109.483 29.1434 109.279 29.3886 108.338C29.5521 107.684 29.7565 106.99 29.9609 106.336C30.2061 105.559 30.4105 105.477 31.1054 105.845C32.3316 106.458 33.5987 106.826 34.9476 106.99C35.806 107.112 36.6643 106.99 37.4818 106.663C38.9942 106.009 39.2394 104.251 37.9315 103.229C37.4818 102.861 36.9913 102.616 36.5008 102.371C35.1928 101.798 33.8031 101.349 32.5769 100.613C30.574 99.3869 29.266 97.7519 29.4295 95.2994C29.593 92.5199 31.1871 90.8032 33.7214 89.863C34.7841 89.4952 34.7841 89.4952 34.7841 88.3916C34.7841 88.0237 34.7841 87.6558 34.7841 87.2879C34.825 86.4704 34.9476 86.3069 35.7651 86.3069C36.0103 86.3069 36.2556 86.3069 36.5417 86.3069C38.2993 86.3069 38.2993 86.3069 38.2993 88.0646C38.2993 89.2908 38.2993 89.3317 39.5256 89.4952C40.4657 89.6587 41.3649 89.9039 42.2642 90.3127C42.7547 90.517 42.9182 90.844 42.7955 91.3754C42.5912 92.152 42.3868 92.8878 42.1415 93.6644C41.8963 94.3593 41.6919 94.4819 40.9971 94.1549C39.6073 93.5009 38.1767 93.2148 36.6643 93.2965C36.2556 93.3374 35.8877 93.3783 35.5198 93.5418C34.2119 94.114 34.0075 95.5446 35.1111 96.4439C35.6833 96.8935 36.3373 97.2205 36.9913 97.5066C38.1358 97.9971 39.3212 98.4467 40.4248 99.0599C43.8992 100.899 44.8393 105.314 42.3868 108.298Z" fill="#6E9BF3"/>
<path d="M186.471 37.2982H140.446C133.006 37.2982 126.957 43.3885 126.957 50.7868V149.213C126.957 156.652 133.047 162.702 140.446 162.702H186.511C193.951 162.702 200 156.611 200 149.213V121.745V62.3135V50.7868C199.959 43.3476 193.91 37.2982 186.471 37.2982ZM169.262 157.02H156.264C154.343 157.02 152.79 155.467 152.79 153.546C152.79 151.625 154.343 150.072 156.264 150.072H169.262C171.183 150.072 172.737 151.625 172.737 153.546C172.737 155.467 171.183 157.02 169.262 157.02ZM192.806 59.7384V62.3135V121.664V128.531V140.875C192.806 142.796 191.253 144.349 189.332 144.349H137.544C135.622 144.349 134.069 142.796 134.069 140.875V59.1253C134.069 57.2041 135.622 55.6509 137.544 55.6509H189.332C191.253 55.6509 192.806 57.2041 192.806 59.1253V59.7384Z" fill="#6E9BF3"/>
<path d="M163.458 79.8079C152.176 79.8079 143.021 88.9638 143.021 100.245C143.021 111.527 152.176 120.683 163.458 120.683C174.739 120.683 183.895 111.527 183.895 100.245C183.895 88.9638 174.739 79.8079 163.458 79.8079ZM169.344 108.298C168.445 109.401 167.3 110.096 165.951 110.464C165.379 110.627 165.093 110.954 165.134 111.568C165.175 112.181 165.134 112.794 165.134 113.366C165.134 113.897 164.848 114.184 164.316 114.224C163.662 114.224 163.008 114.224 162.354 114.224C161.782 114.224 161.537 113.897 161.496 113.325C161.496 112.876 161.496 112.426 161.496 112.017C161.496 111.036 161.455 110.995 160.515 110.873C159.33 110.668 158.144 110.423 157.041 109.892C156.182 109.483 156.1 109.279 156.346 108.338C156.509 107.684 156.714 106.99 156.918 106.336C157.163 105.559 157.368 105.477 158.062 105.845C159.289 106.458 160.556 106.826 161.905 106.99C162.763 107.112 163.621 106.99 164.439 106.663C165.951 106.009 166.196 104.251 164.888 103.229C164.439 102.861 163.948 102.616 163.458 102.371C162.15 101.798 160.76 101.349 159.534 100.613C157.531 99.3869 156.223 97.7519 156.387 95.2994C156.55 92.5199 158.144 90.8032 160.678 89.863C161.741 89.4952 161.741 89.4952 161.741 88.3916C161.741 88.0237 161.741 87.6558 161.741 87.2879C161.782 86.4704 161.905 86.3069 162.722 86.3069C162.967 86.3069 163.213 86.3069 163.499 86.3069C165.256 86.3069 165.256 86.3069 165.256 88.0646C165.256 89.2908 165.256 89.3317 166.483 89.4952C167.423 89.6587 168.322 89.9039 169.221 90.3127C169.712 90.517 169.875 90.844 169.753 91.3754C169.548 92.152 169.344 92.8878 169.099 93.6644C168.853 94.3593 168.649 94.4819 167.954 94.1549C166.564 93.5009 165.134 93.2148 163.621 93.2965C163.213 93.3374 162.845 93.3783 162.477 93.5418C161.169 94.114 160.965 95.5446 162.068 96.4439C162.64 96.8935 163.294 97.2205 163.948 97.5066C165.093 97.9971 166.278 98.4467 167.382 99.0599C170.856 100.899 171.796 105.314 169.344 108.298Z" fill="#6E9BF3"/>
<path d="M118.659 90.6806L107.868 83.9771C107.337 83.6501 106.683 84.018 106.683 84.6311V87.9419H81.7904C81.2182 87.9419 80.7686 88.3916 80.7686 88.9638V93.7462C80.7686 94.3184 81.2182 94.768 81.7904 94.768H106.683V98.0789C106.683 98.692 107.337 99.0599 107.868 98.7329L118.659 92.0294C119.15 91.7024 119.15 91.0076 118.659 90.6806Z" fill="#6E9BF3"/>
<path d="M117.964 105.722H93.0717V102.412C93.0717 101.798 92.4177 101.431 91.8863 101.758L81.0954 108.461C80.6049 108.747 80.6049 109.483 81.0954 109.769L91.8863 116.473C92.4177 116.8 93.0717 116.432 93.0717 115.819V112.508H117.964C118.537 112.508 118.986 112.058 118.986 111.486V106.703C119.027 106.172 118.537 105.722 117.964 105.722Z" fill="#6E9BF3"/>
<path d="M59.5136 37.2982H13.4887C6.04946 37.2982 0 43.3885 0 50.7868V149.213C0 156.652 6.09033 162.702 13.4887 162.702H59.5136C66.9528 162.702 73.0023 156.611 73.0023 149.213V121.745V62.3135V50.7868C73.0023 43.3476 66.9528 37.2982 59.5136 37.2982ZM42.3053 157.02H29.3072C27.3861 157.02 25.8328 155.467 25.8328 153.546C25.8328 151.625 27.3861 150.072 29.3072 150.072H42.3053C44.2264 150.072 45.7797 151.625 45.7797 153.546C45.7797 155.467 44.2264 157.02 42.3053 157.02ZM65.8492 59.7384V62.3135V121.664V128.531V140.875C65.8492 142.796 64.2959 144.349 62.3748 144.349H10.5866C8.66544 144.349 7.1122 142.796 7.1122 140.875V59.1253C7.1122 57.2041 8.66544 55.6509 10.5866 55.6509H62.3748C64.2959 55.6509 65.8492 57.2041 65.8492 59.1253V59.7384Z" fill="#6E9BF3"/>
</svg>
