<svg width="111" height="67" viewBox="0 0 111 67" fill="none" xmlns="http://www.w3.org/2000/svg">
<path d="M33.9643 67C52.7222 67 67.9286 52.0016 67.9286 33.5C67.9286 14.9985 52.7222 0 33.9643 0C15.2063 0 0 14.9985 0 33.5C0 52.0016 15.2063 67 33.9643 67Z" fill="#F4E450"/>
<path d="M14.2332 23.4772C15.4835 23.2657 17.2411 23.1088 19.7163 23.1088C22.2212 23.1088 24.0043 23.5819 25.2015 24.5283C26.3477 25.4202 27.1183 26.8921 27.1183 28.6236C27.1183 30.3573 26.5324 31.8271 25.4689 32.8259C24.0849 34.1135 22.0344 34.6914 19.6377 34.6914C19.1049 34.6914 18.6252 34.6641 18.2537 34.614V40.9412H14.2332V23.4772ZM18.2537 31.513C18.5997 31.5927 19.0264 31.6178 19.6123 31.6178C21.7691 31.6178 23.1021 30.5416 23.1021 28.7305C23.1021 27.1016 21.9557 26.13 19.9328 26.13C19.107 26.13 18.5487 26.2096 18.2558 26.287V31.513H18.2537Z" fill="white"/>
<path d="M36.4841 40.9412L36.2441 39.6557H36.1657C35.3143 40.6795 33.9834 41.2301 32.4379 41.2301C29.8016 41.2301 28.2307 39.3415 28.2307 37.2919C28.2307 33.9565 31.2684 32.3548 35.8749 32.3798V32.1957C35.8749 31.513 35.5012 30.5416 33.5057 30.5416C32.1727 30.5416 30.7631 30.9876 29.9119 31.513L29.1647 28.9398C30.0712 28.4416 31.8542 27.8113 34.2234 27.8113C38.5644 27.8113 39.9484 30.3322 39.9484 33.3514V37.8172C39.9484 39.0506 39.9992 40.2315 40.1351 40.9412H36.4841ZM36.0043 34.8736C33.873 34.8463 32.2237 35.3468 32.2237 36.8961C32.2237 37.9199 32.9156 38.4202 33.822 38.4202C34.8347 38.4202 35.6582 37.7651 35.9235 36.9506C35.9767 36.739 36.0043 36.5025 36.0043 36.2679V34.8736Z" fill="white"/>
<path d="M45.8496 28.098L47.7919 34.4023C48.0064 35.1625 48.2717 36.1088 48.4331 36.7934H48.5117C48.6984 36.1109 48.9107 35.1393 49.0976 34.4023L50.6938 28.098H55.0348L51.9992 36.5548C50.1356 41.651 48.8831 43.6986 47.4184 44.9841C46.0089 46.1922 44.5166 46.6111 43.5041 46.743L42.6527 43.3573C43.158 43.2778 43.7991 43.0411 44.4105 42.6748C45.024 42.3607 45.6904 41.7285 46.0875 41.071C46.2191 40.8867 46.3018 40.6773 46.3018 40.4951C46.3018 40.3632 46.2741 40.1538 46.1149 39.8399L41.3494 28.1001H45.8496V28.098Z" fill="white"/>
<path d="M19.8078 31.7626H20.4935C22.1394 31.7626 23.3004 31.5666 23.9771 31.1748C24.8364 30.694 25.2662 29.8123 25.2662 28.5299C25.2662 26.4283 24.2514 25.3774 22.2217 25.3774H19.8078V31.7626ZM16.8181 22.6523H21.9748C23.9861 22.6523 25.5221 23.1422 26.5828 24.1217C27.7164 25.1192 28.2834 26.5886 28.2834 28.5299C28.2834 30.3823 27.6615 31.8605 26.4182 32.9649C25.2296 33.9801 23.6844 34.4877 21.7828 34.4877H19.8078V42.5828H16.8181V22.6523ZM39.3075 42.6095V41.1935C38.4114 42.3334 37.1222 42.9034 35.4401 42.9034C33.6114 42.9034 32.2584 42.4048 31.3806 41.4073C30.7588 40.677 30.4481 39.7865 30.4481 38.7356C30.4481 35.1022 33.1909 33.2855 38.6766 33.2855H39.0881V32.8046C39.0881 31.059 38.256 30.1863 36.5921 30.1863C35.0925 30.1863 33.6114 30.5693 32.1486 31.3351V28.7169C33.5383 28.0223 35.0743 27.675 36.7567 27.675C38.5121 27.675 39.792 28.0757 40.5967 28.8772C41.4559 29.7499 41.8858 31.1037 41.8858 32.9381V39.1631C41.8858 40.8018 41.9407 41.9506 42.0504 42.6095H39.3075ZM39.0881 35.7701H38.5121C37.0858 35.7701 35.9887 35.8947 35.2207 36.1441C33.9954 36.5359 33.3829 37.3107 33.3829 38.4685C33.3829 39.7508 34.1417 40.392 35.6595 40.392C37.9451 40.392 39.0881 39.0385 39.0881 36.3311V35.7701ZM57.2711 28.0223L51.8402 42.7965C51.3829 44.0432 50.9076 44.9071 50.4139 45.388C49.8105 46.047 49.0059 46.3855 48.0002 46.4033H47.7259C47.031 46.4033 46.3179 46.3141 45.5865 46.1361L45.8882 43.4644C46.5281 43.6959 47.0492 43.8118 47.4516 43.8118C47.4881 43.8118 47.5614 43.8028 47.6711 43.785C47.799 43.785 47.9636 43.7761 48.1648 43.7583C48.5852 43.7226 48.9692 43.1261 49.3168 41.9683L49.5362 41.2737L44.5717 28.0223H47.5888L50.9076 37.7738L54.3637 28.0223H57.2711ZM66.3544 33.4992H58.9213V30.7741H66.3544V33.4992ZM79.1164 42.6095V41.1401C78.129 42.3156 76.8306 42.9034 75.2216 42.9034C73.4295 42.9034 72.0673 42.378 71.1347 41.3271C70.3119 40.3476 69.9004 39.0295 69.9004 37.3731V28.0223H72.8353V36.8388C72.8353 39.2075 73.722 40.392 75.4959 40.392C76.6843 40.392 77.5894 39.9556 78.2113 39.0829C78.705 38.3706 78.9519 37.3998 78.9519 36.1708V28.0223H81.8593V38.9226C81.8593 40.2407 81.9142 41.4697 82.0239 42.6095H79.1164ZM89.2772 46.4033H86.3972V27.9689H89.2772L89.1949 29.5986C89.268 29.5095 89.3595 29.4026 89.4692 29.278C89.5789 29.1354 89.7069 28.9931 89.8532 28.8505C90.6576 28.0668 91.7458 27.675 93.1172 27.675C95.1285 27.675 96.6737 28.3339 97.7526 29.652C98.7034 30.8632 99.1789 32.5731 99.1789 34.7816C99.1789 37.0258 98.676 38.8068 97.6704 40.1249C96.6096 41.5319 95.0646 42.2355 93.0349 42.2355C91.4074 42.2355 90.1549 41.6567 89.2772 40.4989V46.4033ZM92.7881 30.2665C91.6543 30.2665 90.7766 30.7296 90.1549 31.6557C89.5697 32.4929 89.2772 33.5883 89.2772 34.9419C89.2772 36.26 89.5605 37.3553 90.1275 38.228C90.7674 39.1721 91.6361 39.644 92.7332 39.644C95.1103 39.644 96.2989 38.05 96.2989 34.8617C96.2989 31.7983 95.1285 30.2665 92.7881 30.2665Z" fill="#000357"/>
</svg>
