<svg width="236" height="236" viewBox="0 0 236 236" fill="none" xmlns="http://www.w3.org/2000/svg">
<g clip-path="url(#clip0_3_94)">
<path d="M118 236C183.17 236 236 183.17 236 118C236 52.8304 183.17 0 118 0C52.8304 0 0 52.8304 0 118C0 183.17 52.8304 236 118 236Z" fill="#F4E450"/>
<path d="M49.4494 82.6959C53.7932 81.951 59.8997 81.3979 68.499 81.3979C77.2015 81.3979 83.3965 83.0646 87.556 86.3981C91.5385 89.5399 94.2156 94.7245 94.2156 100.824C94.2156 106.93 92.1801 112.107 88.4852 115.625C83.6767 120.161 76.5525 122.196 68.2261 122.196C66.375 122.196 64.7082 122.101 63.4176 121.924V144.211H49.4494V82.6959ZM63.4176 111.001C64.6197 111.281 66.1021 111.37 68.1376 111.37C75.6306 111.37 80.2621 107.579 80.2621 101.2C80.2621 95.462 76.2796 92.04 69.2512 92.04C66.3824 92.04 64.4427 92.3203 63.425 92.5931V111.001H63.4176Z" fill="white"/>
<path d="M126.754 144.211L125.921 139.683H125.648C122.69 143.289 118.066 145.229 112.697 145.229C103.538 145.229 98.0801 138.576 98.0801 131.356C98.0801 119.608 108.634 113.966 124.637 114.054V113.405C124.637 111.001 123.339 107.579 116.407 107.579C111.775 107.579 106.878 109.15 103.921 111.001L101.325 101.937C104.474 100.182 110.669 97.9621 118.9 97.9621C133.982 97.9621 138.79 106.842 138.79 117.476V133.207C138.79 137.551 138.967 141.711 139.439 144.211H126.754ZM125.087 122.838C117.683 122.742 111.952 124.505 111.952 129.962C111.952 133.569 114.357 135.331 117.506 135.331C121.024 135.331 123.885 133.023 124.807 130.154C124.991 129.409 125.087 128.576 125.087 127.75V122.838Z" fill="white"/>
<path d="M159.293 98.9725L166.041 121.179C166.786 123.856 167.707 127.189 168.268 129.601H168.541C169.19 127.197 169.927 123.775 170.576 121.179L176.122 98.9725H191.204L180.658 128.76C174.183 146.711 169.831 153.924 164.743 158.452C159.846 162.707 154.661 164.182 151.143 164.647L148.186 152.722C149.941 152.441 152.168 151.608 154.292 150.317C156.424 149.211 158.739 146.984 160.119 144.668C160.576 144.019 160.863 143.281 160.863 142.64C160.863 142.175 160.768 141.438 160.214 140.332L143.658 98.9799H159.293V98.9725Z" fill="white"/>
</g>
<defs>
<clipPath id="clip0_3_94">
<rect width="236" height="236" fill="white"/>
</clipPath>
</defs>
</svg>
