<svg width="348" height="348" viewBox="0 0 348 348" fill="none" xmlns="http://www.w3.org/2000/svg">
<g clip-path="url(#clip0_2_56)">
<path d="M174 70C226.203 70 268.565 109.197 268.565 157.5C268.565 205.803 226.203 245 174 245C121.797 245 79.4348 205.803 79.4348 157.5C79.4348 109.197 121.797 70 174 70Z" fill="#FFD248"/>
<path d="M340.435 129.5V192.5H309.642C306.244 204.962 300.947 216.72 293.987 227.431L315.775 247.591L267.657 292.181L245.796 272.022C234.219 278.461 221.512 283.363 208.044 286.507V315H139.957V286.508C126.497 283.363 113.782 278.462 102.205 272.023L80.4183 292.182L32.2271 247.591L54.0217 227.432C47.061 216.72 41.7562 204.962 38.358 192.5H7.56525V129.5H38.358C41.7562 117.045 47.061 105.28 54.0202 94.5686L32.2256 74.3414L80.4168 29.8186L102.204 49.9849C113.781 43.5449 126.496 38.6365 139.957 35.4921V7H208.044V35.4921C221.512 38.6365 234.219 43.5449 245.795 49.9842L267.583 29.8179L315.774 74.3407L293.987 94.5679C300.946 105.28 306.243 117.044 309.641 129.499H340.435V129.5ZM268.565 157.5C268.565 109.197 226.203 70 174 70C121.797 70 79.4348 109.197 79.4348 157.5C79.4348 205.803 121.797 245 174 245C226.203 245 268.565 205.803 268.565 157.5Z" fill="#6E9BF3"/>
<path d="M174 94.5C211.59 94.5 242.087 122.725 242.087 157.5C242.087 192.282 211.589 220.5 174 220.5C136.418 220.5 105.913 192.281 105.913 157.5C105.913 122.725 136.418 94.5 174 94.5Z" fill="#F4E450"/>
<path d="M340.435 122.5H315.414C312.435 113.151 308.419 104.182 303.423 95.7243L321.132 79.282C324.08 76.5457 324.074 72.1175 321.119 69.3875L272.927 24.8647C269.972 22.134 265.185 22.1354 262.232 24.8696L244.536 41.2475C235.388 36.6212 225.698 32.9035 215.608 30.1497V7C215.608 3.1339 212.22 0 208.043 0H139.956C135.777 0 132.391 3.1339 132.391 7V30.1511C122.298 32.9056 112.608 36.6233 103.463 41.2489L85.7669 24.8703C82.8142 22.1375 78.0261 22.1354 75.0712 24.8654L26.8807 69.3875C23.9258 72.1168 23.9205 76.5471 26.8679 79.2834L44.5833 95.725C39.5827 104.189 35.5633 113.158 32.5857 122.5H7.56522C3.38695 122.5 0 125.634 0 129.5V192.5C0 196.365 3.38695 199.5 7.56522 199.5H32.5849C35.5611 208.836 39.5782 217.803 44.5788 226.267L26.8785 242.64C25.4592 243.953 24.6611 245.734 24.6611 247.59C24.6611 249.446 25.4585 251.227 26.8769 252.54L75.0681 297.131C78.0231 299.864 82.8119 299.864 85.7676 297.131L103.463 280.757C112.601 285.377 122.293 289.093 132.392 291.848V315C132.392 318.865 135.779 322 139.957 322H208.044C212.222 322 215.609 318.865 215.609 315V291.85C225.711 289.094 235.404 285.378 244.547 280.753L262.317 297.139C265.274 299.866 270.061 299.861 273.011 297.127L321.128 252.536C324.078 249.802 324.077 245.373 321.124 242.64L303.428 226.267C308.423 217.809 312.438 208.842 315.415 199.499H340.435C344.612 199.499 348 196.365 348 192.499V129.499C348 125.634 344.612 122.5 340.435 122.5ZM332.87 185.5H309.642C306.177 185.5 303.155 187.678 302.307 190.788C299.11 202.511 294.129 213.627 287.504 223.825C285.714 226.579 286.182 230.109 288.638 232.382L305.079 247.595L267.644 282.287L251.136 267.065C248.679 264.799 244.872 264.37 241.899 266.024C230.878 272.154 218.864 276.763 206.194 279.721C202.834 280.505 200.479 283.302 200.479 286.508V308H147.523V286.508C147.523 283.302 145.169 280.506 141.809 279.721C129.132 276.76 117.119 272.152 106.103 266.024C103.125 264.368 99.3116 264.8 96.8552 267.073L80.4175 282.283L42.9258 247.592L59.3688 232.383C61.8252 230.11 62.2935 226.582 60.5036 223.826C53.8696 213.615 48.8872 202.499 45.6932 190.788C44.8451 187.68 41.8228 185.501 38.3579 185.501H15.1304V136.501H38.3579C41.8228 136.501 44.8443 134.323 45.6924 131.214C48.8902 119.498 53.8727 108.382 60.5036 98.1757C62.2912 95.424 61.8267 91.9002 59.3779 89.6266L42.9205 74.3533L80.4122 39.7159L96.8537 54.9346C99.3116 57.2089 103.125 57.6401 106.102 55.9846C117.133 49.8491 129.146 45.2382 141.808 42.28C145.168 41.4953 147.522 38.6995 147.522 35.4935V14H200.478V35.4921C200.478 38.6981 202.833 41.4946 206.193 42.2793C218.849 45.2347 230.862 49.8456 241.898 55.9832C244.874 57.638 248.69 57.2054 251.146 54.9332L267.588 39.7145L305.08 74.3526L288.629 89.6266C286.18 91.8995 285.716 95.4233 287.504 98.1743C294.127 108.368 299.108 119.483 302.308 131.213C303.156 134.322 306.177 136.499 309.642 136.499H332.87V185.5Z" fill="#231F20"/>
<path d="M174 63C117.685 63 71.8696 105.393 71.8696 157.5C71.8696 209.607 117.685 252 174 252C230.315 252 276.13 209.608 276.13 157.5C276.13 105.392 230.315 63 174 63ZM174 238C126.028 238 87 201.888 87 157.5C87 113.112 126.028 77 174 77C221.972 77 261 113.112 261 157.5C261 201.888 221.972 238 174 238Z" fill="#231F20"/>
<path d="M185.348 122.5H181.565V112H166.435V122.5H162.652C154.309 122.5 147.522 128.78 147.522 136.5V150.5C147.522 158.22 154.309 164.5 162.652 164.5H174H185.348V178.5H162.652V171.5H147.522V178.5C147.522 186.22 154.309 192.5 162.652 192.5H166.435V203H181.565V192.5H185.348C193.691 192.5 200.478 186.22 200.478 178.5V164.5C200.478 156.78 193.691 150.5 185.348 150.5H174H162.652V136.5H185.348V143.5H200.478V136.5C200.478 128.78 193.691 122.5 185.348 122.5Z" fill="#231F20"/>
<path d="M238.304 150.5H223.174V164.5H238.304V150.5Z" fill="#231F20"/>
<path d="M124.826 150.5H109.696V164.5H124.826V150.5Z" fill="#231F20"/>
</g>
<defs>
<clipPath id="clip0_2_56">
<rect width="348" height="348" fill="white"/>
</clipPath>
</defs>
<animateTransform attributeType="xml" attributeName="transform" type="rotate" values="0 0 0; 360 0 0" dur="20s" additive="sum" repeatCount="indefinite" />
</svg>
