<svg width="27" height="29" viewBox="0 0 27 29" fill="none" xmlns="http://www.w3.org/2000/svg">
<path d="M13.5002 14.7166C17.2838 14.7166 20.3511 11.4222 20.3511 7.3583C20.3511 3.29442 17.2838 0 13.5002 0C9.71663 0 6.64941 3.29442 6.64941 7.3583C6.64941 11.4222 9.71663 14.7166 13.5002 14.7166Z" fill="#6E9BF3"/>
<path d="M3.08887 28.5469C3.40274 22.0096 7.99401 16.7656 13.4999 16.7656C19.0058 16.7656 23.5975 22.0096 23.9109 28.5469H3.08887Z" fill="#F4E450"/>
<path d="M13.5 17.2188C16.1713 17.2428 18.7076 18.4834 20.4783 20.6321C22.2122 22.6975 23.2605 25.3211 23.4596 28.0938H3.54039C3.73952 25.3215 4.78787 22.6979 6.52136 20.633C8.29197 18.4839 10.8283 17.2428 13.5 17.2188ZM13.5 16.3125C7.57731 16.3125 2.77089 21.9711 2.65234 29H24.3477C24.2291 21.9711 19.4227 16.3125 13.5 16.3125Z" fill="black"/>
</svg>
